<svg viewBox="0 0 40 40" xmlns="http://www.w3.org/2000/svg">
    <defs>
        <radialGradient id="iceGradient" cx="50%" cy="50%" r="50%" fx="50%" fy="50%">
            <stop offset="0%" style="stop-color:#ffffff;stop-opacity:0.9" />
            <stop offset="70%" style="stop-color:#a0d8ef;stop-opacity:0.8" />
            <stop offset="100%" style="stop-color:#87cefa;stop-opacity:0.7" />
        </radialGradient>
        <filter id="iceFilter" x="-20%" y="-20%" width="140%" height="140%">
            <feGaussianBlur in="SourceAlpha" stdDeviation="1" result="blur" />
            <feSpecularLighting in="blur" surfaceScale="5" specularConstant="0.5" specularExponent="20" lighting-color="#white" result="specOut">
                <fePointLight x="20" y="20" z="30" />
            </feSpecularLighting>
            <feComposite in="specOut" in2="SourceAlpha" operator="in" result="specOut" />
            <feComposite in="SourceGraphic" in2="specOut" operator="arithmetic" k1="0" k2="1" k3="1" k4="0" result="litPaint" />
        </filter>
    </defs>

    <polygon points="20,4 36,10 36,30 20,36 4,30 4,10" fill="url(#iceGradient)" filter="url(#iceFilter)" opacity="0.85" />
    <polygon points="20,4 36,10 36,30 20,36 4,30 4,10" fill="none" stroke="#e0f0ff" stroke-width="0.5" />

    <path d="M12,8 L17,34" stroke="#ffffff" stroke-width="0.3" opacity="0.6" />
    <path d="M28,6 L22,35" stroke="#ffffff" stroke-width="0.3" opacity="0.6" />
    <path d="M7,16 L32,12" stroke="#ffffff" stroke-width="0.3" opacity="0.7" />
    <path d="M8,24 L34,28" stroke="#ffffff" stroke-width="0.3" opacity="0.7" />

    <g transform="translate(10, 10) scale(0.85)">
        <path d="M14.314 0L2.3 12 6 15.7 21.684.012h-7.357L14.314 0zm.014 11.072l-6.471 6.457 6.47 6.47H21.7l-6.46-6.468 6.46-6.46h-7.371z" fill="#0091EA" />
    </g>

    <circle cx="13" cy="13" r="0.8" fill="#ffffff" />
    <circle cx="26" cy="17" r="0.6" fill="#ffffff" />
    <circle cx="16" cy="28" r="0.7" fill="#ffffff" />
    <circle cx="30" cy="23" r="0.5" fill="#ffffff" />
    <circle cx="10" cy="22" r="0.4" fill="#ffffff" />
</svg>